<svg width="4" height="4" viewBox="0 0 4 4" fill="none" xmlns="http://www.w3.org/2000/svg">
<g clip-path="url(#clip0_25_152)">
<mask id="mask0_25_152" style="mask-type:alpha" maskUnits="userSpaceOnUse" x="-4" y="0" width="221" height="12">
<rect x="-4" width="221" height="12" fill="#F8F1ED"/>
</mask>
<g mask="url(#mask0_25_152)">
<path d="M213.354 -0.646446L200.354 12.3536M217.354 -0.646446L204.354 12.3536M221.354 -0.646446L208.354 12.3536M225.354 -0.646446L212.354 12.3536M197.354 -0.646446L184.354 12.3536M201.354 -0.646446L188.354 12.3536M205.354 -0.646446L192.354 12.3536M209.354 -0.646446L196.354 12.3536M181.354 -0.646446L168.354 12.3536M185.354 -0.646446L172.354 12.3536M189.354 -0.646446L176.354 12.3536M193.354 -0.646446L180.354 12.3536M165.354 -0.646446L152.354 12.3536M169.354 -0.646446L156.354 12.3536M173.354 -0.646446L160.354 12.3536M177.354 -0.646446L164.354 12.3536M149.354 -0.646446L136.354 12.3536M153.354 -0.646446L140.354 12.3536M157.354 -0.646446L144.354 12.3536M161.354 -0.646446L148.354 12.3536M133.354 -0.646446L120.354 12.3536M137.354 -0.646446L124.354 12.3536M141.354 -0.646446L128.354 12.3536M145.354 -0.646446L132.354 12.3536M117.354 -0.646446L104.354 12.3536M121.354 -0.646446L108.354 12.3536M125.354 -0.646446L112.354 12.3536M129.354 -0.646446L116.354 12.3536M101.354 -0.646446L88.3535 12.3536M105.354 -0.646446L92.3535 12.3536M109.354 -0.646446L96.3535 12.3536M113.354 -0.646446L100.354 12.3536M85.3535 -0.646446L72.3535 12.3536M89.3535 -0.646446L76.3535 12.3536M93.3535 -0.646446L80.3535 12.3536M97.3535 -0.646446L84.3535 12.3536M69.3535 -0.646446L56.3535 12.3536M73.3535 -0.646446L60.3535 12.3536M77.3535 -0.646446L64.3535 12.3536M81.3535 -0.646446L68.3535 12.3536M53.3535 -0.646446L40.3535 12.3536M57.3535 -0.646446L44.3535 12.3536M61.3535 -0.646446L48.3535 12.3536M65.3535 -0.646446L52.3535 12.3536M37.3535 -0.646446L24.3535 12.3536M41.3535 -0.646446L28.3535 12.3536M45.3535 -0.646446L32.3535 12.3536M49.3535 -0.646446L36.3535 12.3536M21.3535 -0.646446L8.35355 12.3536M25.3535 -0.646446L12.3535 12.3536M29.3535 -0.646446L16.3535 12.3536M33.3535 -0.646446L20.3535 12.3536M5.35355 -0.646446L-7.64645 12.3536M9.35355 -0.646446L-3.64645 12.3536M13.3535 -0.646446L0.353546 12.3536M17.3535 -0.646446L4.35355 12.3536M1.35355 -0.646446L-11.6465 12.3536" stroke="#7A2930"/>
</g>
</g>
<defs>
<clipPath id="clip0_25_152">
<rect width="4" height="4" fill="white"/>
</clipPath>
</defs>
</svg>
